<svg width="20" height="20" viewBox="0 0 20 20" fill="none" xmlns="http://www.w3.org/2000/svg">
<path d="M16.9156 16.8999C15.0461 15.1748 12.6039 14.2032 10.0602 14.1726C7.51654 14.1421 5.05171 15.0547 3.14132 16.7345L2.27686 15.7536C4.42957 13.8601 7.20729 12.831 10.0741 12.8648C12.9408 12.8986 15.6935 13.993 17.801 15.9367L16.9156 16.8999Z" fill="#A8AAAB"/>
<path d="M9.93585 5.72289C10.5773 5.72289 11.2044 5.91311 11.7377 6.26949C12.2711 6.62587 12.6868 7.13241 12.9323 7.72505C13.1778 8.31769 13.242 8.96981 13.1168 9.59895C12.9917 10.2281 12.6828 10.806 12.2292 11.2596C11.7756 11.7132 11.1977 12.0221 10.5686 12.1472C9.93945 12.2723 9.28735 12.2081 8.69471 11.9626C8.10207 11.7172 7.59552 11.3015 7.23914 10.7681C6.88276 10.2347 6.69256 9.60767 6.69256 8.96621C6.6936 8.10634 7.03561 7.282 7.64363 6.67399C8.25164 6.06597 9.07599 5.72393 9.93585 5.72289ZM9.93585 4.4151C9.03573 4.4151 8.15582 4.68202 7.4074 5.1821C6.65897 5.68218 6.07566 6.39297 5.7312 7.22457C5.38673 8.05618 5.29661 8.97126 5.47222 9.85409C5.64782 10.7369 6.08126 11.5478 6.71774 12.1843C7.35423 12.8208 8.16517 13.2543 9.048 13.4299C9.93083 13.6055 10.8459 13.5153 11.6775 13.1709C12.5091 12.8264 13.2199 12.2431 13.72 11.4947C14.22 10.7462 14.487 9.86633 14.487 8.96621C14.487 7.75918 14.0075 6.60159 13.154 5.74809C12.3005 4.89459 11.1429 4.4151 9.93585 4.4151Z" fill="#A8AAAB"/>
<path d="M10 1.30779C11.7192 1.30779 13.3997 1.81758 14.8291 2.77269C16.2586 3.72781 17.3727 5.08534 18.0306 6.67364C18.6885 8.26193 18.8606 10.0096 18.5252 11.6958C18.1898 13.3819 17.3619 14.9307 16.1463 16.1463C14.9307 17.362 13.3819 18.1898 11.6958 18.5252C10.0096 18.8606 8.26192 18.6885 6.67362 18.0306C5.08533 17.3727 3.7278 16.2586 2.77269 14.8291C1.81758 13.3997 1.30777 11.7192 1.30777 10C1.31037 7.69548 2.227 5.4861 3.85654 3.85655C5.48608 2.22701 7.69549 1.31038 10 1.30779ZM10 0C8.02219 0 6.08879 0.586497 4.4443 1.68531C2.79981 2.78413 1.51808 4.34591 0.761199 6.17317C0.00432296 8.00043 -0.193697 10.0111 0.192155 11.9509C0.578007 13.8907 1.53041 15.6726 2.92894 17.0711C4.32746 18.4696 6.10929 19.422 8.0491 19.8079C9.98891 20.1937 11.9996 19.9957 13.8268 19.2388C15.6541 18.4819 17.2159 17.2002 18.3147 15.5557C19.4135 13.9112 20 11.9778 20 10C20 7.34783 18.9464 4.8043 17.0711 2.92893C15.1957 1.05357 12.6522 0 10 0Z" fill="#A8AAAB"/>
</svg>
