<svg width="93" height="30" viewBox="0 0 93 30" fill="none" xmlns="http://www.w3.org/2000/svg">
<path d="M14.3767 29.9169C12.3546 29.9169 10.4709 29.5291 8.72576 28.7535C7.00833 27.9778 5.49859 26.9252 4.19668 25.5956C2.86704 24.2659 1.82825 22.7147 1.08033 20.9418C0.360113 19.1413 0 17.1468 0 14.9584C0 12.8532 0.373961 10.8864 1.12188 9.05817C1.86981 7.22992 2.89474 5.65097 4.19668 4.32133C5.49859 2.99169 7.00833 1.93906 8.72576 1.16344C10.4709 0.387812 12.3546 0 14.3767 0C16.3989 0 18.3103 0.415513 20.1108 1.24654C21.9391 2.07756 23.6011 3.33795 25.097 5.0277L22.4792 7.18837C20.097 4.58449 17.3961 3.28255 14.3767 3.28255C12.8255 3.28255 11.3989 3.58726 10.097 4.19668C8.79503 4.8061 7.6316 5.63712 6.60665 6.68975C5.60942 7.74236 4.81994 8.97507 4.23823 10.3878C3.68421 11.7728 3.4072 13.2964 3.4072 14.9584C3.4072 16.6482 3.68421 18.1994 4.23823 19.6122C4.81994 20.9972 5.60942 22.2022 6.60665 23.2271C7.6316 24.2798 8.79503 25.1108 10.097 25.7202C11.3989 26.3297 12.8255 26.6343 14.3767 26.6343C17.3961 26.6343 20.097 25.3324 22.4792 22.7285L25.097 24.8892C23.6011 26.579 21.9391 27.8393 20.1108 28.6704C18.3103 29.5014 16.3989 29.9169 14.3767 29.9169ZM58.3276 29.4598C56.6655 29.2659 55.2528 28.6842 54.0893 27.7147C52.9536 26.7452 52.0949 25.5125 51.5131 24.0166C50.9314 22.4931 50.6406 20.7895 50.6406 18.9058C50.6406 16.8836 51.0007 15.0969 51.7209 13.5457C52.4688 11.9668 53.5353 10.7341 54.9204 9.84765C56.3331 8.93352 58.0367 8.47646 60.0315 8.47646C60.8346 8.47646 61.6656 8.53184 62.5245 8.64266C63.4108 8.75348 64.3664 9.072 65.3916 9.59834V0.415512H68.6741V29.5014H65.3916V27.5485C64.6157 28.2133 63.5906 28.7535 62.3168 29.169C61.0423 29.5845 59.7127 29.6814 58.3276 29.4598ZM65.3916 24.7645V12.7147C63.3971 11.8837 61.5273 11.5651 59.7821 11.759C58.0644 11.9529 56.6655 12.6593 55.5852 13.8781C54.5048 15.0693 53.9647 16.7452 53.9647 18.9058C53.9647 20.651 54.2833 22.1191 54.9204 23.3102C55.5852 24.4737 56.4716 25.3324 57.5796 25.8864C58.6877 26.4404 59.9068 26.6343 61.2364 26.4681C62.5934 26.3019 63.9788 25.7341 65.3916 24.7645ZM92.0425 20.1108H75.8791C75.9349 21.9113 76.4193 23.338 77.3334 24.3906C78.2475 25.4432 79.411 26.1357 80.8237 26.4681C82.2364 26.8006 83.7465 26.7728 85.3528 26.385C86.9596 25.9973 88.4834 25.2632 89.9234 24.1828L91.6686 26.759C90.3116 27.8116 88.8989 28.5873 87.4303 29.0859C85.9624 29.5845 84.4945 29.8476 83.0259 29.8753C79.5635 29.9584 76.9179 29.0028 75.0896 27.0083C73.2614 24.9861 72.3472 22.1745 72.3472 18.5734C72.3472 15.4986 73.2062 13.0471 74.9234 11.2188C76.6686 9.39058 79.1895 8.49029 82.4857 8.51801C84.6464 8.51801 86.4889 8.96124 88.0121 9.84765C89.5358 10.7341 90.6577 12.0499 91.3777 13.795C91.738 14.6538 91.9594 15.6094 92.0425 16.6621C92.1535 17.7147 92.1535 18.8643 92.0425 20.1108ZM82.652 11.5928C80.7685 11.5928 79.1616 12.0914 77.832 13.0886C76.5303 14.0582 75.8791 15.5124 75.8791 17.4515H89.0924C89.0924 15.6233 88.5107 14.1967 87.3472 13.1717C86.2117 12.1191 84.6464 11.5928 82.652 11.5928Z" fill="#1A1A1B"/>
<path d="M38.0538 30C36.0594 30 34.3003 29.5707 32.7768 28.7119C31.281 27.8532 30.1036 26.6482 29.245 25.097C28.4139 23.518 27.9984 21.6759 27.9984 19.5706C27.9984 17.1329 28.4416 15.0969 29.3281 13.4626C30.2145 11.8283 30.8666 11.575 31.1979 11.2782C31.1979 11.2782 32.3506 10.3878 33.241 10.091C34.1314 9.79422 36.5057 9.49743 36.5057 9.49743V12.7622C36.5057 12.7622 34.9885 12.9759 33.9663 13.4626C32.9442 13.9493 32.0538 15.4333 31.757 16.0269C31.4602 16.6205 31.1979 17.3269 31.1979 19.5706C31.1979 20.928 31.4472 22.1606 31.9458 23.2687C32.4721 24.349 33.2477 25.2216 34.2727 25.8864C35.2975 26.5235 36.558 26.8421 38.0538 26.8421C39.5219 26.8421 40.7685 26.5235 41.7934 25.8864C42.8183 25.2216 43.594 24.3352 44.1203 23.2271C44.6466 22.1191 45.1128 20.9003 45.1128 19.5706C45.1128 17.2992 44.816 16.9173 44.5192 16.0269C44.2224 15.1365 43.3524 14.163 42.3127 13.4626C41.2731 12.7622 39.7705 12.7622 39.7705 12.7622V9.49743C39.7705 9.49743 41.6205 9.71837 42.7384 10.091C43.8564 10.4637 45.1128 11.2782 45.1128 11.2782C45.7064 11.8718 46.3316 12.6118 47.1903 14.2461C48.049 15.8805 48.3775 17.1329 48.3775 19.5706C48.3775 21.6759 47.6798 23.518 46.8211 25.097C45.9624 26.6482 44.7712 27.8532 43.2477 28.7119C41.7519 29.5707 40.0206 30 38.0538 30Z" fill="#1A1A1B"/>
<path d="M32.6475 20.4788C32.6475 20.4788 34.7251 21.666 36.5059 21.3692C38.614 21.0178 37.5935 18.8395 40.6611 18.4012C42.7386 18.1044 43.9258 19.2916 43.9258 19.2916C43.9258 19.2916 43.9258 21.9628 42.7386 23.4468C41.3725 25.1544 40.4708 25.4141 38.2867 25.5243C36.5658 25.6112 35.6156 25.2275 35.022 24.9307C34.4284 24.6339 33.2413 23.4474 32.9444 22.5564C32.6475 21.6654 32.6475 20.4788 32.6475 20.4788Z" fill="#7604B0" stroke="#7604B0"/>
<rect x="37.9897" y="5.93591" width="2.37436" height="2.37436" rx="1.18718" fill="#7604B0"/>
<rect x="36.209" y="3.56152" width="1.78077" height="1.78077" rx="0.890384" fill="#7604B0"/>
<rect x="38.5835" y="1.18719" width="1.18718" height="1.18718" rx="0.593589" fill="#7604B0"/>
</svg>
