<svg width="18" height="20" viewBox="0 0 18 20" fill="none" xmlns="http://www.w3.org/2000/svg">
<path d="M8.88889 10.3704C10.0676 10.3704 11.1981 9.90212 12.0316 9.06862C12.8651 8.23513 13.3333 7.10467 13.3333 5.92593C13.3333 4.74719 12.8651 3.61672 12.0316 2.78323C11.1981 1.94973 10.0676 1.48148 8.88889 1.48148C7.71015 1.48148 6.57969 1.94973 5.74619 2.78323C4.9127 3.61672 4.44444 4.74719 4.44444 5.92593C4.44444 7.10467 4.9127 8.23513 5.74619 9.06862C6.57969 9.90212 7.71015 10.3704 8.88889 10.3704ZM8.88889 11.8519C7.31724 11.8519 5.80995 11.2275 4.69863 10.1162C3.5873 9.00486 2.96296 7.49758 2.96296 5.92593C2.96296 4.35427 3.5873 2.84699 4.69863 1.73566C5.80995 0.624337 7.31724 0 8.88889 0C10.4605 0 11.9678 0.624337 13.0792 1.73566C14.1905 2.84699 14.8148 4.35427 14.8148 5.92593C14.8148 7.49758 14.1905 9.00486 13.0792 10.1162C11.9678 11.2275 10.4605 11.8519 8.88889 11.8519ZM16.2963 19.2593V17.037C16.2963 16.4477 16.0622 15.8824 15.6454 15.4657C15.2287 15.0489 14.6634 14.8148 14.0741 14.8148H3.7037C3.11433 14.8148 2.5491 15.0489 2.13236 15.4657C1.71561 15.8824 1.48148 16.4477 1.48148 17.037V19.2593C1.48148 19.4557 1.40344 19.6441 1.26452 19.783C1.12561 19.922 0.937197 20 0.740741 20C0.544284 20 0.355874 19.922 0.216958 19.783C0.0780423 19.6441 0 19.4557 0 19.2593V17.037C0 16.0548 0.390211 15.1127 1.08479 14.4181C1.77937 13.7235 2.72142 13.3333 3.7037 13.3333H14.0741C15.0564 13.3333 15.9984 13.7235 16.693 14.4181C17.3876 15.1127 17.7778 16.0548 17.7778 17.037V19.2593C17.7778 19.4557 17.6997 19.6441 17.5608 19.783C17.4219 19.922 17.2335 20 17.037 20C16.8406 20 16.6522 19.922 16.5133 19.783C16.3743 19.6441 16.2963 19.4557 16.2963 19.2593Z" fill="#1C1C1C"/>
</svg>
