<svg width="93" height="30" viewBox="0 0 93 30" fill="none" xmlns="http://www.w3.org/2000/svg">
<path d="M14.8352 29.6471C12.8313 29.6471 10.9646 29.2628 9.23519 28.4941C7.53325 27.7255 6.03713 26.6824 4.74696 25.3647C3.42931 24.0471 2.3999 22.5098 1.65872 20.7529C0.944999 18.9686 0.588135 16.9922 0.588135 14.8235C0.588135 12.7372 0.958723 10.7882 1.6999 8.97647C2.44108 7.16471 3.45676 5.6 4.74696 4.28235C6.03713 2.96471 7.53325 1.92157 9.23519 1.15294C10.9646 0.384314 12.8313 0 14.8352 0C16.8391 0 18.7333 0.411765 20.5175 1.2353C22.3293 2.05883 23.9764 3.30784 25.4587 4.98235L22.8646 7.12353C20.5038 4.54314 17.8274 3.25294 14.8352 3.25294C13.298 3.25294 11.8842 3.5549 10.594 4.15882C9.30384 4.76275 8.1509 5.58628 7.13519 6.62941C6.14696 7.67253 5.36461 8.89412 4.78814 10.2941C4.23912 11.6666 3.96461 13.1765 3.96461 14.8235C3.96461 16.4981 4.23912 18.0353 4.78814 19.4353C5.36461 20.8078 6.14696 22.0019 7.13519 23.0176C8.1509 24.0608 9.30384 24.8843 10.594 25.4882C11.8842 26.0922 13.298 26.3941 14.8352 26.3941C17.8274 26.3941 20.5038 25.1039 22.8646 22.5235L25.4587 24.6647C23.9764 26.3392 22.3293 27.5882 20.5175 28.4118C18.7333 29.2353 16.8391 29.6471 14.8352 29.6471ZM58.3896 29.1941C56.7425 29.0019 55.3425 28.4255 54.1896 27.4647C53.0641 26.5039 52.2131 25.2824 51.6367 23.8C51.0602 22.2902 50.772 20.6019 50.772 18.7353C50.772 16.7314 51.1288 14.9608 51.8425 13.4235C52.5837 11.8588 53.6406 10.6372 55.0131 9.75882C56.4131 8.85294 58.1014 8.4 60.0781 8.4C60.874 8.4 61.6975 8.45488 62.5487 8.56471C63.427 8.67453 64.374 8.99018 65.3899 9.51177V0.411765H68.6428V29.2353H65.3899V27.3C64.6211 27.9588 63.6052 28.4941 62.3428 28.9059C61.0799 29.3176 59.7623 29.4137 58.3896 29.1941ZM65.3899 24.5412V12.6C63.4134 11.7765 61.5605 11.4608 59.8311 11.6529C58.1288 11.8451 56.7425 12.5451 55.672 13.7529C54.6014 14.9334 54.0661 16.5941 54.0661 18.7353C54.0661 20.4647 54.3818 21.9196 55.0131 23.1C55.672 24.2529 56.5504 25.1039 57.6484 25.6529C58.7465 26.2019 59.9546 26.3941 61.2723 26.2294C62.617 26.0647 63.9899 25.5019 65.3899 24.5412ZM91.8005 19.9294H75.7828C75.8381 21.7137 76.3181 23.1275 77.224 24.1706C78.1299 25.2137 79.2828 25.9 80.6828 26.2294C82.0828 26.5588 83.5793 26.5314 85.1711 26.1471C86.7634 25.7628 88.2734 25.0353 89.7005 23.9647L91.4299 26.5176C90.0852 27.5608 88.6852 28.3294 87.2299 28.8235C85.7752 29.3176 84.3205 29.5784 82.8652 29.6059C79.434 29.6882 76.8123 28.7412 75.0005 26.7647C73.1887 24.7608 72.2828 21.9745 72.2828 18.4059C72.2828 15.3588 73.134 12.9294 74.8358 11.1176C76.5652 9.30588 79.0634 8.41371 82.3299 8.44118C84.4711 8.44118 86.297 8.88041 87.8064 9.75882C89.3164 10.6372 90.4281 11.9412 91.1417 13.6706C91.4987 14.5216 91.7181 15.4686 91.8005 16.5118C91.9105 17.5549 91.9105 18.6941 91.8005 19.9294ZM82.4946 11.4882C80.6281 11.4882 79.0358 11.9824 77.7181 12.9706C76.4281 13.9314 75.7828 15.3725 75.7828 17.2941H88.877C88.877 15.4824 88.3005 14.0686 87.1476 13.0529C86.0223 12.0098 84.4711 11.4882 82.4946 11.4882Z" fill="white"/>
<path d="M38.2987 29.7294C36.3223 29.7294 34.5791 29.3039 33.0693 28.4529C31.587 27.6019 30.4203 26.4078 29.5693 24.8706C28.7458 23.3059 28.334 21.4804 28.334 19.3941C28.334 16.9784 28.7732 14.9608 29.6517 13.3412C30.5301 11.7216 31.1764 11.4706 31.5046 11.1765C31.5046 11.1765 32.647 10.2941 33.5293 10C34.4117 9.70588 36.7646 9.41176 36.7646 9.41176V12.6471C36.7646 12.6471 35.2611 12.8588 34.2481 13.3412C33.2352 13.8235 32.3528 15.2941 32.0587 15.8824C31.7646 16.4706 31.5046 17.1706 31.5046 19.3941C31.5046 20.7392 31.7517 21.9608 32.2458 23.0588C32.7673 24.1294 33.536 24.9941 34.5517 25.6529C35.5673 26.2843 36.8164 26.6 38.2987 26.6C39.7536 26.6 40.9889 26.2843 42.0046 25.6529C43.0203 24.9941 43.7889 24.1157 44.3105 23.0176C44.832 21.9196 45.294 20.7118 45.294 19.3941C45.294 17.1431 44.9999 16.7647 44.7058 15.8824C44.4117 15 43.5495 14.0353 42.5192 13.3412C41.489 12.6471 39.9999 12.6471 39.9999 12.6471V9.41176C39.9999 9.41176 41.8332 9.63071 42.9411 10C44.0489 10.3693 45.294 11.1765 45.294 11.1765C45.8823 11.7647 46.5018 12.4981 47.3528 14.1176C48.2038 15.7372 48.5293 16.9784 48.5293 19.3941C48.5293 21.4804 47.8379 23.3059 46.987 24.8706C46.136 26.4078 44.9555 27.6019 43.4458 28.4529C41.9634 29.3039 40.2477 29.7294 38.2987 29.7294Z" fill="white"/>
<path d="M14.8352 29.6471C12.8313 29.6471 10.9646 29.2628 9.23519 28.4941C7.53325 27.7255 6.03713 26.6824 4.74696 25.3647C3.42931 24.0471 2.3999 22.5098 1.65872 20.7529C0.944999 18.9686 0.588135 16.9922 0.588135 14.8235C0.588135 12.7372 0.958723 10.7882 1.6999 8.97647C2.44108 7.16471 3.45676 5.6 4.74696 4.28235C6.03713 2.96471 7.53325 1.92157 9.23519 1.15294C10.9646 0.384314 12.8313 0 14.8352 0C16.8391 0 18.7333 0.411765 20.5175 1.2353C22.3293 2.05883 23.9764 3.30784 25.4587 4.98235L22.8646 7.12353C20.5038 4.54314 17.8274 3.25294 14.8352 3.25294C13.298 3.25294 11.8842 3.5549 10.594 4.15882C9.30384 4.76275 8.1509 5.58628 7.13519 6.62941C6.14696 7.67253 5.36461 8.89412 4.78814 10.2941C4.23912 11.6666 3.96461 13.1765 3.96461 14.8235C3.96461 16.4981 4.23912 18.0353 4.78814 19.4353C5.36461 20.8078 6.14696 22.0019 7.13519 23.0176C8.1509 24.0608 9.30384 24.8843 10.594 25.4882C11.8842 26.0922 13.298 26.3941 14.8352 26.3941C17.8274 26.3941 20.5038 25.1039 22.8646 22.5235L25.4587 24.6647C23.9764 26.3392 22.3293 27.5882 20.5175 28.4118C18.7333 29.2353 16.8391 29.6471 14.8352 29.6471ZM58.3896 29.1941C56.7425 29.0019 55.3425 28.4255 54.1896 27.4647C53.0641 26.5039 52.2131 25.2824 51.6367 23.8C51.0602 22.2902 50.772 20.6019 50.772 18.7353C50.772 16.7314 51.1288 14.9608 51.8425 13.4235C52.5837 11.8588 53.6406 10.6372 55.0131 9.75882C56.4131 8.85294 58.1014 8.4 60.0781 8.4C60.874 8.4 61.6975 8.45488 62.5487 8.56471C63.427 8.67453 64.374 8.99018 65.3899 9.51177V0.411765H68.6428V29.2353H65.3899V27.3C64.6211 27.9588 63.6052 28.4941 62.3428 28.9059C61.0799 29.3176 59.7623 29.4137 58.3896 29.1941ZM65.3899 24.5412V12.6C63.4134 11.7765 61.5605 11.4608 59.8311 11.6529C58.1288 11.8451 56.7425 12.5451 55.672 13.7529C54.6014 14.9334 54.0661 16.5941 54.0661 18.7353C54.0661 20.4647 54.3818 21.9196 55.0131 23.1C55.672 24.2529 56.5504 25.1039 57.6484 25.6529C58.7465 26.2019 59.9546 26.3941 61.2723 26.2294C62.617 26.0647 63.9899 25.5019 65.3899 24.5412ZM91.8005 19.9294H75.7828C75.8381 21.7137 76.3181 23.1275 77.224 24.1706C78.1299 25.2137 79.2828 25.9 80.6828 26.2294C82.0828 26.5588 83.5793 26.5314 85.1711 26.1471C86.7634 25.7628 88.2734 25.0353 89.7005 23.9647L91.4299 26.5176C90.0852 27.5608 88.6852 28.3294 87.2299 28.8235C85.7752 29.3176 84.3205 29.5784 82.8652 29.6059C79.434 29.6882 76.8123 28.7412 75.0005 26.7647C73.1887 24.7608 72.2828 21.9745 72.2828 18.4059C72.2828 15.3588 73.134 12.9294 74.8358 11.1176C76.5652 9.30588 79.0634 8.41371 82.3299 8.44118C84.4711 8.44118 86.297 8.88041 87.8064 9.75882C89.3164 10.6372 90.4281 11.9412 91.1417 13.6706C91.4987 14.5216 91.7181 15.4686 91.8005 16.5118C91.9105 17.5549 91.9105 18.6941 91.8005 19.9294ZM82.4946 11.4882C80.6281 11.4882 79.0358 11.9824 77.7181 12.9706C76.4281 13.9314 75.7828 15.3725 75.7828 17.2941H88.877C88.877 15.4824 88.3005 14.0686 87.1476 13.0529C86.0223 12.0098 84.4711 11.4882 82.4946 11.4882Z" fill="white"/>
<path d="M38.2987 29.7294C36.3223 29.7294 34.5791 29.3039 33.0693 28.4529C31.587 27.6019 30.4203 26.4078 29.5693 24.8706C28.7458 23.3059 28.334 21.4804 28.334 19.3941C28.334 16.9784 28.7732 14.9608 29.6517 13.3412C30.5301 11.7216 31.1764 11.4706 31.5046 11.1765C31.5046 11.1765 32.647 10.2941 33.5293 10C34.4117 9.70588 36.7646 9.41176 36.7646 9.41176V12.6471C36.7646 12.6471 35.2611 12.8588 34.2481 13.3412C33.2352 13.8235 32.3528 15.2941 32.0587 15.8824C31.7646 16.4706 31.5046 17.1706 31.5046 19.3941C31.5046 20.7392 31.7517 21.9608 32.2458 23.0588C32.7673 24.1294 33.536 24.9941 34.5517 25.6529C35.5673 26.2843 36.8164 26.6 38.2987 26.6C39.7536 26.6 40.9889 26.2843 42.0046 25.6529C43.0203 24.9941 43.7889 24.1157 44.3105 23.0176C44.832 21.9196 45.294 20.7118 45.294 19.3941C45.294 17.1431 44.9999 16.7647 44.7058 15.8824C44.4117 15 43.5495 14.0353 42.5192 13.3412C41.489 12.6471 39.9999 12.6471 39.9999 12.6471V9.41176C39.9999 9.41176 41.8332 9.63071 42.9411 10C44.0489 10.3693 45.294 11.1765 45.294 11.1765C45.8823 11.7647 46.5018 12.4981 47.3528 14.1176C48.2038 15.7372 48.5293 16.9784 48.5293 19.3941C48.5293 21.4804 47.8379 23.3059 46.987 24.8706C46.136 26.4078 44.9555 27.6019 43.4458 28.4529C41.9634 29.3039 40.2477 29.7294 38.2987 29.7294Z" fill="white"/>
<path d="M32.9412 20.2941C32.9412 20.2941 35.0001 21.4706 36.7648 21.1764C38.8539 20.8282 37.8426 18.6696 40.8825 18.2353C42.9413 17.9411 44.1178 19.1176 44.1178 19.1176C44.1178 19.1176 44.1178 21.7647 42.9413 23.2353C41.5875 24.9276 40.694 25.1849 38.5295 25.2941C36.8242 25.3802 35.8825 25 35.2942 24.7059C34.706 24.4118 33.5297 23.2359 33.2354 22.3529C32.9412 21.47 32.9412 20.2941 32.9412 20.2941Z" fill="#7604B0" stroke="#7604B0"/>
<rect x="38.2354" y="5.88232" width="2.35294" height="2.35294" rx="1.17647" fill="#7604B0"/>
<rect x="36.4707" y="3.52942" width="1.76471" height="1.76471" rx="0.882353" fill="#7604B0"/>
<rect x="38.8235" y="1.17645" width="1.17647" height="1.17647" rx="0.588235" fill="#7604B0"/>
</svg>
