<svg width="40" height="40" viewBox="0 0 40 40" fill="none" xmlns="http://www.w3.org/2000/svg">
<rect width="40" height="40" rx="4" fill="#343536"/>
<path d="M29.4909 10H10.5085C10.2278 10 10 10.2635 10 10.5882V29.411C10 29.4283 10.0075 29.4432 10.0088 29.4604C10.0169 29.5412 10.0359 29.6157 10.0644 29.6831L10.063 29.6792C10.0969 29.7475 10.1376 29.8063 10.1858 29.8557L10.1864 29.8565C10.198 29.8682 10.2047 29.8839 10.2176 29.8941C10.2278 29.902 10.24 29.8988 10.2502 29.9059C10.3227 29.9616 10.4115 29.9961 10.5064 29.9992H10.5071L10.5085 30H29.4915C29.7722 30 30 29.7365 30 29.4118V10.589C30 10.2643 29.7722 10.0008 29.4915 10.0008L29.4909 10ZM28.9824 11.1764V22.7611L24.491 14.9676C24.3934 14.8179 24.2402 14.7222 24.0673 14.7222C23.8944 14.7222 23.7412 14.8179 23.6443 14.9661L23.6436 14.9676L18.5285 23.8442L15.572 21.1086C15.4859 21.0286 15.3754 20.98 15.2547 20.98C15.0832 20.98 14.9314 21.0788 14.8392 21.2294L14.8378 21.2309L11.0169 27.5452V11.1764H28.9824ZM11.4847 28.8228L15.3598 22.4199L18.3258 25.1649C18.4079 25.2465 18.5156 25.2959 18.6336 25.2959C18.6648 25.2959 18.6953 25.2927 18.7251 25.2857L18.7224 25.2865C18.8675 25.2606 18.9895 25.1665 19.0661 25.0339L19.0675 25.0316L24.068 16.355L28.9831 24.8849V28.8228H11.4847ZM14.5761 17.4507C15.6059 17.4507 16.4405 16.4852 16.4405 15.2939C16.4405 14.1026 15.6059 13.1371 14.5761 13.1371C13.5463 13.1371 12.7118 14.1026 12.7118 15.2939C12.7131 16.4845 13.547 17.4491 14.5761 17.4507ZM14.5761 14.3136C15.0439 14.3136 15.4235 14.7528 15.4235 15.2939C15.4235 15.8351 15.0439 16.2743 14.5761 16.2743C14.1083 16.2743 13.7287 15.8351 13.7287 15.2939C13.7294 14.7528 14.1083 14.3143 14.5761 14.3136Z" fill="#818384"/>
</svg>
